<svg width="23" height="17" viewBox="0 0 23 17" fill="none" xmlns="http://www.w3.org/2000/svg">
<path d="M22.7243 1.62574C22.7243 2.04174 22.5653 2.45774 22.2483 2.77474L9.24831 15.7747C9.09792 15.9263 8.91888 16.0464 8.72162 16.1282C8.52436 16.2099 8.31282 16.2516 8.09931 16.2507C7.88587 16.251 7.67449 16.2091 7.47731 16.1274C7.28012 16.0457 7.10103 15.9259 6.9503 15.7747L0.450305 9.27474C0.156948 8.96783 -0.00464459 8.55829 0.000101672 8.13376C0.00484793 7.70922 0.175556 7.3034 0.475702 7.00312C0.775848 6.70285 1.18159 6.53196 1.60613 6.52703C2.03066 6.5221 2.44027 6.68352 2.7473 6.97674L8.09931 12.3307L19.9513 0.47774C20.1782 0.249923 20.4676 0.0946246 20.7829 0.0315442C21.0982 -0.0315363 21.4251 0.000443473 21.7221 0.123427C22.0192 0.24641 22.273 0.454855 22.4515 0.722321C22.6299 0.989788 22.7248 1.30422 22.7243 1.62574Z" fill="white"/>
</svg>
