<svg width="20" height="20" viewBox="0 0 20 20" fill="none" xmlns="http://www.w3.org/2000/svg">
<path d="M8.18785 15.5021C7.14359 16.5635 5.48505 16.6259 4.50221 15.5645L4.37936 15.5021C3.39652 14.5031 3.39652 12.8174 4.44079 11.756L5.79219 10.3824C6.46789 9.69565 7.3893 9.4459 8.24928 9.63321C8.61785 9.69564 9.10927 9.50835 9.47783 9.13374L10.3378 8.25966C10.9521 7.63531 11.0135 6.76123 10.3992 6.44906C8.12643 5.38768 5.23934 5.88714 3.27366 7.88505L1.92226 9.25862C-0.534835 11.756 -0.657686 15.8142 1.67656 18.1867L1.73798 18.2492C4.13365 20.6841 8.065 20.5593 10.5221 17.9994L11.1364 17.3751C11.8121 16.6883 11.7506 15.7518 11.0749 15.5645L9.4164 15.0026C9.10926 14.9401 8.61784 15.1275 8.18785 15.5021Z" fill="#5E5E5E"/>
<path d="M9.4156 1.95378L8.80132 2.57812C8.12562 3.2649 8.18705 4.20142 8.86276 4.38872L10.5827 4.88821C11.0127 5.01308 11.5041 4.82577 11.8727 4.45116C12.917 3.38977 14.5755 3.32733 15.5583 4.38872L15.6198 4.45116C16.6026 5.45011 16.6026 7.13584 15.5583 8.19723L14.2069 9.5708C13.5312 10.2576 12.6098 10.5073 11.7498 10.32C11.3813 10.2576 10.8899 10.4449 10.5213 10.8195L9.66131 11.6936C9.04704 12.3179 8.98561 13.192 9.59988 13.5042C11.8727 14.5655 14.7598 14.0661 16.7255 12.0682L18.0769 10.6946C20.534 8.19723 20.6568 4.13899 18.3226 1.76648L18.2611 1.70404C15.8655 -0.668469 11.9341 -0.543603 9.4156 1.95378Z" fill="#5E5E5E"/>
</svg>
