<svg width="35" height="23" viewBox="0 0 35 23" fill="none" xmlns="http://www.w3.org/2000/svg">
<g clip-path="url(#clip0_319_190)">
<path fill-rule="evenodd" clip-rule="evenodd" d="M32.8125 0H2.1875C0.984375 0 0 0.981466 0 2.18103V20.7198C0 21.9194 0.984375 22.9009 2.1875 22.9009H32.8125C34.0156 22.9009 35 21.9194 35 20.7198V2.18103C35 0.981466 34.0156 0 32.8125 0Z" fill="#34495E"/>
<path d="M13.125 19.0841C17.3534 19.0841 20.7812 15.6664 20.7812 11.4505C20.7812 7.23452 17.3534 3.81683 13.125 3.81683C8.8966 3.81683 5.46875 7.23452 5.46875 11.4505C5.46875 15.6664 8.8966 19.0841 13.125 19.0841Z" fill="#E74C3C"/>
<path d="M21.875 19.0841C26.1034 19.0841 29.5312 15.6664 29.5312 11.4505C29.5312 7.23452 26.1034 3.81683 21.875 3.81683C17.6466 3.81683 14.2188 7.23452 14.2188 11.4505C14.2188 15.6664 17.6466 19.0841 21.875 19.0841Z" fill="#F1C40F"/>
<path fill-rule="evenodd" clip-rule="evenodd" d="M19.4688 7.63361H13.3437C13.125 7.96077 12.9062 8.28792 12.6875 8.72413H20.125C19.9062 8.28792 19.6875 7.96077 19.4688 7.63361ZM17.7188 5.45258H15.2031C14.875 5.77973 14.5469 6.10689 14.2188 6.54309H18.8125C18.375 6.10689 17.9375 5.77973 17.7188 5.45258ZM20.5625 9.81464H12.3594C12.25 10.1418 12.1406 10.578 12.1406 10.9052H20.7812C20.6719 10.578 20.6719 10.1418 20.5625 9.81464ZM13.3437 15.2672H19.4688C19.6875 14.9401 19.9062 14.6129 20.125 14.1767H12.6875C12.9062 14.6129 13.125 14.9401 13.3437 15.2672ZM12.25 13.0862H20.4531C20.5625 12.759 20.6719 12.3228 20.6719 11.9957H12.0312C12.1406 12.3228 12.1406 12.759 12.25 13.0862ZM15.0938 17.4483H17.6094C17.9375 17.1211 18.2656 16.794 18.5938 16.3577H14C14.4375 16.794 14.875 17.1211 15.0938 17.4483Z" fill="#E74C3C"/>
</g>
<defs>
<clipPath id="clip0_319_190">
<rect width="35" height="23" fill="white"/>
</clipPath>
</defs>
</svg>
