<svg width="12" height="14" viewBox="0 0 12 14" fill="none" xmlns="http://www.w3.org/2000/svg">
<path d="M1.42527 12.7695C1.46711 13.4488 2.04188 14 2.7083 14H9.29223C9.95866 14 10.5332 13.4488 10.5753 12.7695L11.1429 3.50008H0.857143L1.42527 12.7695ZM11.5714 0.875103H8.57143L8.26125 0.241826C8.18869 0.0936243 8.04027 0 7.87795 0H4.12232C3.95997 0 3.81161 0.0936243 3.73902 0.241826L3.42857 0.875103H0.428571C0.191893 0.875103 0 1.07094 0 1.3126V2.18759C0 2.4292 0.191893 2.62509 0.428571 2.62509H11.5714C11.8082 2.62509 12 2.4292 12 2.18759V1.3126C12 1.07088 11.8071 0.875103 11.5714 0.875103Z" fill="white"/>
</svg>
