<svg width="40" height="40" viewBox="0 0 40 40" fill="none" xmlns="http://www.w3.org/2000/svg">
<g clip-path="url(#clip0_37_6511)">
<mask id="mask0_37_6511" style="mask-type:luminance" maskUnits="userSpaceOnUse" x="0" y="0" width="40" height="40">
<path d="M0 0H40V40H0V0Z" fill="white"/>
</mask>
<g mask="url(#mask0_37_6511)">
<path d="M12.5 35.938C13.0803 35.938 13.6368 35.7075 14.0471 35.2972C14.4575 34.8868 14.688 34.3303 14.688 33.75C14.688 33.1697 14.4575 32.6132 14.0471 32.2029C13.6368 31.7925 13.0803 31.562 12.5 31.562C11.9279 31.5742 11.3834 31.8101 10.9832 32.219C10.5829 32.6279 10.3588 33.1773 10.3588 33.7495C10.3588 34.3217 10.5829 34.8711 10.9832 35.28C11.3834 35.6889 11.9279 35.9258 12.5 35.938ZM28.75 35.938C29.3303 35.938 29.8868 35.7075 30.2971 35.2972C30.7075 34.8868 30.938 34.3303 30.938 33.75C30.938 33.1697 30.7075 32.6132 30.2971 32.2029C29.8868 31.7925 29.3303 31.562 28.75 31.562C28.1779 31.5742 27.6334 31.8101 27.2332 32.219C26.8329 32.6279 26.6088 33.1773 26.6088 33.7495C26.6088 34.3217 26.8329 34.8711 27.2332 35.28C27.6334 35.6889 28.1779 35.9258 28.75 35.938Z" fill="white"/>
<path d="M6.61 11.25H34.64L30.516 25.688C30.3686 26.2119 30.0533 26.673 29.6184 27.0004C29.1836 27.3277 28.6533 27.5033 28.109 27.5H13.141C12.5966 27.5032 12.0662 27.3275 11.6313 27C11.1965 26.6724 10.8812 26.2111 10.734 25.687L5.078 5.907C5.0034 5.64556 4.84559 5.41557 4.6285 5.25189C4.41141 5.08822 4.14688 4.99979 3.875 5H1.25" stroke="white" stroke-width="3" stroke-linecap="round" stroke-linejoin="round"/>
</g>
</g>
<defs>
<clipPath id="clip0_37_6511">
<rect width="40" height="40" fill="white"/>
</clipPath>
</defs>
</svg>
