<svg width="25" height="25" viewBox="0 0 25 25" fill="none" xmlns="http://www.w3.org/2000/svg">
<path d="M12.5 22.438C12.1909 22.4387 11.8848 22.3783 11.5992 22.2603C11.3136 22.1422 11.0542 21.9688 10.836 21.75L2.78896 13.703C2.15315 13.0605 1.6516 12.2978 1.31355 11.4595C0.975503 10.6211 0.807712 9.72387 0.819961 8.82002C0.826102 7.99172 0.995602 7.17277 1.31875 6.41008C1.6419 5.6474 2.11235 4.95596 2.70315 4.37538C3.29394 3.7948 3.99348 3.33649 4.76169 3.02669C5.5299 2.7169 6.35168 2.56171 7.17996 2.57002C8.02306 2.56165 8.85926 2.72268 9.63896 3.04356C10.4187 3.36444 11.126 3.83863 11.719 4.43802L12.5 5.21802L13.14 4.57802C14.2462 3.44257 15.7265 2.74649 17.3066 2.6187C18.8867 2.49092 20.4596 2.94009 21.734 3.88302C22.4595 4.44151 23.0577 5.14821 23.4887 5.95603C23.9198 6.76385 24.1737 7.65425 24.2336 8.56791C24.2935 9.48156 24.158 10.3975 23.8361 11.2547C23.5142 12.1118 23.0134 12.8906 22.367 13.539L14.164 21.75C13.9456 21.9687 13.6862 22.142 13.4006 22.2601C13.1151 22.3782 12.809 22.4386 12.5 22.438ZM7.14796 4.12502C5.90618 4.12383 4.71266 4.60583 3.81996 5.46902C3.36485 5.90699 3.00295 6.43243 2.75601 7.01378C2.50907 7.59513 2.38218 8.2204 2.38296 8.85202C2.37606 9.54676 2.50712 10.236 2.76855 10.8797C3.02999 11.5234 3.41659 12.1088 3.90596 12.602L11.953 20.648C12.0257 20.7211 12.1122 20.7791 12.2074 20.8187C12.3027 20.8583 12.4048 20.8787 12.508 20.8787C12.6111 20.8787 12.7132 20.8583 12.8085 20.8187C12.9037 20.7791 12.9902 20.7211 13.063 20.648L21.273 12.43C21.755 11.9379 22.1275 11.3494 22.3658 10.703C22.6042 10.0567 22.7031 9.36728 22.656 8.68002C22.6143 7.98573 22.4231 7.30863 22.0955 6.69507C21.7679 6.0815 21.3117 5.54593 20.758 5.12502C19.786 4.4084 18.5867 4.06958 17.3835 4.17168C16.1803 4.27379 15.0552 4.80987 14.218 5.68002L13.055 6.87502C12.9824 6.94849 12.896 7.00682 12.8007 7.04664C12.7054 7.08645 12.6032 7.10695 12.5 7.10695C12.3967 7.10695 12.2945 7.08645 12.1992 7.04664C12.1039 7.00682 12.0175 6.94849 11.945 6.87502L10.617 5.54702C9.70236 4.64026 8.46787 4.12951 7.17996 4.12502H7.14796Z" fill="white"/>
<mask id="mask0_37_6564" style="mask-type:luminance" maskUnits="userSpaceOnUse" x="0" y="2" width="25" height="21">
<path d="M12.5 22.438C12.1909 22.4387 11.8848 22.3783 11.5992 22.2603C11.3136 22.1422 11.0542 21.9688 10.836 21.75L2.78896 13.703C2.15315 13.0605 1.6516 12.2978 1.31355 11.4595C0.975503 10.6211 0.807712 9.72387 0.819961 8.82002C0.826102 7.99172 0.995602 7.17277 1.31875 6.41008C1.6419 5.6474 2.11235 4.95596 2.70315 4.37538C3.29394 3.7948 3.99348 3.33649 4.76169 3.02669C5.5299 2.7169 6.35168 2.56171 7.17996 2.57002C8.02306 2.56165 8.85926 2.72268 9.63896 3.04356C10.4187 3.36444 11.126 3.83863 11.719 4.43802L12.5 5.21802L13.14 4.57802C14.2462 3.44257 15.7265 2.74649 17.3066 2.6187C18.8867 2.49092 20.4596 2.94009 21.734 3.88302C22.4595 4.44151 23.0577 5.14821 23.4887 5.95603C23.9198 6.76385 24.1737 7.65425 24.2336 8.56791C24.2935 9.48156 24.158 10.3975 23.8361 11.2547C23.5142 12.1118 23.0134 12.8906 22.367 13.539L14.164 21.75C13.9456 21.9687 13.6862 22.142 13.4006 22.2601C13.1151 22.3782 12.809 22.4386 12.5 22.438ZM7.14796 4.12502C5.90618 4.12383 4.71266 4.60583 3.81996 5.46902C3.36485 5.90699 3.00295 6.43243 2.75601 7.01378C2.50907 7.59513 2.38218 8.2204 2.38296 8.85202C2.37606 9.54676 2.50712 10.236 2.76855 10.8797C3.02999 11.5234 3.41659 12.1088 3.90596 12.602L11.953 20.648C12.0257 20.7211 12.1122 20.7791 12.2074 20.8187C12.3027 20.8583 12.4048 20.8787 12.508 20.8787C12.6111 20.8787 12.7132 20.8583 12.8085 20.8187C12.9037 20.7791 12.9902 20.7211 13.063 20.648L21.273 12.43C21.755 11.9379 22.1275 11.3494 22.3658 10.703C22.6042 10.0567 22.7031 9.36728 22.656 8.68002C22.6143 7.98573 22.4231 7.30863 22.0955 6.69507C21.7679 6.0815 21.3117 5.54593 20.758 5.12502C19.786 4.4084 18.5867 4.06958 17.3835 4.17168C16.1803 4.27379 15.0552 4.80987 14.218 5.68002L13.055 6.87502C12.9824 6.94849 12.896 7.00682 12.8007 7.04664C12.7054 7.08645 12.6032 7.10695 12.5 7.10695C12.3967 7.10695 12.2945 7.08645 12.1992 7.04664C12.1039 7.00682 12.0175 6.94849 11.945 6.87502L10.617 5.54702C9.70236 4.64026 8.46787 4.12951 7.17996 4.12502H7.14796Z" fill="white"/>
</mask>
<g mask="url(#mask0_37_6564)">
<path d="M12.5 22.438L12.586 -12.562H12.414L12.5 22.438ZM10.836 21.75L35.6 -2.98298L35.592 -2.99098L35.585 -2.99898L10.836 21.75ZM2.78897 13.703L-22.093 38.318L-22.027 38.385L-21.96 38.452L2.78897 13.703ZM0.819969 8.82002L35.817 9.29202L35.819 9.18502V9.08002L0.819969 8.82002ZM7.17997 2.57002L6.82997 37.57L7.17997 37.573L7.53097 37.57L7.17997 2.57002ZM11.719 4.43802L-13.158 29.058L-13.094 29.122L-13.03 29.186L11.719 4.43802ZM12.5 5.21802L-12.249 29.968L12.5 54.716L37.249 29.968L12.5 5.21802ZM13.14 4.57802L37.89 29.327L38.051 29.165L38.211 29.001L13.14 4.57802ZM21.734 3.88302L43.089 -23.847L42.823 -24.053L42.553 -24.253L21.734 3.88302ZM22.367 13.539L47.127 38.276L47.143 38.261L47.158 38.245L22.367 13.539ZM14.164 21.75L-10.596 -2.98698L-10.6 -2.98298L14.164 21.75ZM7.14797 4.12502L7.11297 39.125H7.14797V4.12502ZM3.81997 5.46902L28.087 30.69L28.117 30.661L28.147 30.632L3.81997 5.46902ZM2.38297 8.85202L37.381 9.19702L37.383 9.00602V8.81502L2.38297 8.85202ZM3.90597 12.602L-20.936 37.257L-20.889 37.304L-20.843 37.35L3.90597 12.602ZM11.953 20.648L36.803 -3.99898L36.753 -4.04898L36.702 -4.09998L11.953 20.648ZM13.063 20.648L-11.698 -4.08798L-11.743 -4.04298L-11.787 -3.99798L13.063 20.648ZM21.273 12.43L46.034 37.167L46.157 37.043L46.28 36.918L21.273 12.43ZM22.656 8.68002L-12.281 10.78L-12.271 10.925L-12.261 11.071L22.656 8.68002ZM20.758 5.12502L41.933 -22.743L41.731 -22.896L41.528 -23.046L20.758 5.12502ZM14.218 5.68002L39.293 30.099L39.365 30.024L39.437 29.949L14.22 5.68002H14.218ZM13.055 6.87502L37.905 31.522L38.017 31.409L38.129 31.294L13.055 6.87502ZM11.945 6.87502L36.795 -17.772L36.745 -17.823L36.695 -17.873L11.945 6.87502ZM10.617 5.54702L35.366 -19.202L35.312 -19.256L35.258 -19.31L10.617 5.54702ZM7.17997 4.12502L7.29797 -30.875H7.17997V4.12502ZM12.414 -12.562C16.72 -12.572 20.984 -11.732 24.964 -10.088L-1.76603 54.608C2.78461 56.4883 7.66218 57.4501 12.586 57.438L12.414 -12.562ZM24.964 -10.088C28.943 -8.44389 32.5576 -6.02925 35.6 -2.98298L-13.928 46.483C-10.4489 49.9667 -6.31633 52.728 -1.76603 54.608L24.964 -10.088ZM35.584 -2.99798L27.538 -11.046L-21.96 38.452L-13.913 46.499L35.585 -2.99898L35.584 -2.99798ZM27.671 -10.911C30.3012 -8.25254 32.3762 -5.09727 33.775 -1.62898L-31.147 24.548C-29.0724 29.6932 -25.9947 34.3741 -22.093 38.318L27.671 -10.911ZM33.775 -1.62898C35.1733 1.83952 35.8675 5.5526 35.817 9.29202L-34.176 8.34902C-34.2506 13.8962 -33.2216 19.4028 -31.147 24.548L33.773 -1.62998L33.775 -1.62898ZM35.819 9.08002C35.7912 12.8555 35.0188 16.5885 33.546 20.065L-30.908 -7.24298C-33.027 -2.241 -34.1382 3.12989 -34.178 8.56202L35.819 9.08002ZM33.546 20.065C32.073 23.5413 29.9288 26.6928 27.236 29.339L-21.83 -20.587C-25.7042 -16.7793 -28.7891 -12.2447 -30.908 -7.24298L33.546 20.065ZM27.236 29.339C24.5434 31.9854 21.3552 34.0746 17.854 35.487L-8.33103 -29.432C-13.3686 -27.4001 -17.9558 -24.3944 -21.83 -20.587L27.236 29.338V29.339ZM17.854 35.487C14.3521 36.8997 10.6059 37.6076 6.82997 37.57L7.52697 -32.427C2.09578 -32.4811 -3.29275 -31.4634 -8.33003 -29.432L17.855 35.486L17.854 35.487ZM7.53097 37.57C3.68824 37.6086 -0.122103 36.8751 -3.67603 35.413L22.954 -29.324C17.8403 -31.4275 12.3562 -32.4827 6.82697 -32.427L7.53097 37.57ZM-3.67603 35.413C-7.23029 33.9509 -10.4547 31.7898 -13.158 29.058L36.596 -20.182C32.7065 -24.1118 28.0674 -27.2206 22.954 -29.324L-3.67603 35.413ZM-13.03 29.186L-12.249 29.968L37.25 -19.53L36.468 -20.311L-13.03 29.186ZM37.249 29.968L37.889 29.328L-11.608 -20.17L-12.248 -19.529L37.249 29.968ZM38.21 29C33.4096 33.9278 26.986 36.949 20.129 37.504L14.484 -32.268C4.46672 -31.4574 -4.91733 -27.0439 -11.93 -19.845L38.211 29.001L38.21 29ZM20.13 37.505C13.273 38.0598 6.44724 36.1108 0.916969 32.019L42.553 -24.253C34.4742 -30.2304 24.5019 -33.0775 14.485 -32.267L20.13 37.505ZM0.379971 31.613C-2.83401 29.1382 -5.48383 26.007 -7.39303 22.428L54.37 -10.516C51.5995 -15.7104 47.7531 -20.2549 43.089 -23.847L0.379971 31.613ZM-7.39303 22.428C-9.30207 18.8491 -10.4267 14.9046 -10.692 10.857L59.158 6.27902C58.773 0.404156 57.1408 -5.32127 54.37 -10.516L-7.39303 22.428ZM-10.692 10.857C-10.9575 6.80938 -10.3575 2.75165 -8.93203 -1.04598L56.603 23.555C58.6719 18.0435 59.5429 12.1535 59.158 6.27902L-10.692 10.857ZM-8.93203 -1.04598C-7.50623 -4.84362 -5.28765 -8.29388 -2.42403 -11.167L47.158 38.245C51.314 34.0748 54.5338 29.067 56.603 23.555L-8.93003 -1.04598H-8.93203ZM-2.39303 -11.198L-10.596 -2.98698L38.924 46.487L47.127 38.276L-2.39303 -11.198ZM-10.6 -2.98298C-7.5577 -6.02925 -3.94304 -8.44389 0.0359726 -10.088L26.766 54.608C31.3159 52.7279 35.4492 49.9666 38.928 46.483L-10.6 -2.98298ZM0.0359726 -10.088C4.01532 -11.7319 8.28045 -12.5727 12.586 -12.562L12.414 57.438C17.337 57.449 22.214 56.488 26.765 54.608L0.0359726 -10.088ZM7.18397 -30.875C-3.14762 -30.8854 -13.078 -26.876 -20.506 -19.695L28.147 30.632C22.5045 36.087 14.9612 39.1328 7.11297 39.125L7.18397 -30.875ZM-20.446 -19.753C-24.2998 -16.0452 -27.3645 -11.5968 -29.456 -6.67498L34.968 20.702C33.3706 24.4609 31.0301 27.8582 28.087 30.69L-20.446 -19.753ZM-29.456 -6.67498C-31.5475 -1.75326 -32.6226 3.54037 -32.617 8.88802L37.383 8.81502C37.3871 12.8996 36.5657 16.9429 34.968 20.702L-29.456 -6.67498ZM-32.616 8.50702C-32.6683 13.8334 -31.6629 19.1171 -29.658 24.052L35.195 -2.29398C36.6767 1.35364 37.4198 5.26011 37.381 9.19702L-32.615 8.50602L-32.616 8.50702ZM-29.658 24.052C-27.6532 28.9875 -24.6886 33.4759 -20.936 37.257L28.748 -12.053C31.5217 -9.25835 33.713 -5.9409 35.195 -2.29298L-29.658 24.052ZM-20.842 37.35L-12.796 45.397L36.702 -4.09998L28.655 -12.147L-20.843 37.35H-20.842ZM-12.897 45.295C-9.57077 48.649 -5.61334 51.3112 -1.25303 53.128L25.667 -11.489C29.837 -9.75186 33.6218 -7.20624 36.803 -3.99898L-12.897 45.295ZM-1.25303 53.128C3.10703 54.9446 7.78362 55.8799 12.507 55.88V-14.12C17.025 -14.12 21.497 -13.226 25.667 -11.489L-1.25303 53.128ZM12.507 55.88C17.231 55.88 21.907 54.944 26.268 53.128L-0.652031 -11.49C3.51798 -13.227 7.99065 -14.1212 12.508 -14.121V55.879L12.507 55.88ZM26.268 53.128C30.6287 51.3114 34.5865 48.6492 37.913 45.295L-11.787 -3.99898C-8.6061 -7.20611 -4.82168 -9.75272 -0.652031 -11.49L26.268 53.128ZM37.823 45.385L46.034 37.167L-3.48703 -12.307L-11.698 -4.08898L37.823 45.385ZM46.28 36.918C50.2167 32.8982 53.2583 28.0909 55.205 22.812L-10.472 -1.40698C-9.00186 -5.39331 -6.70489 -9.02347 -3.73203 -12.059L46.28 36.918ZM55.205 22.812C57.1517 17.5329 57.9594 11.9015 57.575 6.28802L-12.262 11.071C-12.552 6.83202 -11.942 2.58002 -10.472 -1.40698L55.205 22.812ZM57.593 6.58002C57.2492 0.853085 55.6723 -4.73199 52.97 -9.79298L-8.77703 23.183C-10.8249 19.349 -12.0201 15.1188 -12.281 10.78L57.593 6.58002ZM52.97 -9.79298C50.2671 -14.8542 46.5015 -19.2716 41.933 -22.743L-0.41703 32.993C-3.87777 30.3633 -6.72949 27.017 -8.77703 23.183L52.97 -9.79298ZM41.53 -23.046C33.7236 -28.8015 24.091 -31.5229 14.427 -30.703L20.343 39.047C13.0845 39.6627 5.8498 37.6184 -0.013031 33.295L41.528 -23.047L41.53 -23.046ZM14.427 -30.703C4.76253 -29.8835 -4.27441 -25.5785 -11 -18.59L39.437 29.95C34.3862 35.1983 27.5997 38.4314 20.342 39.047L14.427 -30.703ZM-10.855 -18.739L-12.019 -17.544L38.129 31.294L39.293 30.099L-10.855 -18.739ZM-11.795 -17.772C-8.61414 -20.9792 -4.8297 -23.5248 -0.66003 -25.262L26.26 39.354C30.6206 37.5377 34.5784 34.8758 37.905 31.522L-11.795 -17.772ZM-0.66003 -25.262C3.50989 -26.9994 7.98357 -27.894 12.501 -27.894V42.106C17.225 42.106 21.9 41.171 26.26 39.354L-0.66003 -25.262ZM12.501 -27.894C17.018 -27.894 21.491 -26.999 25.661 -25.262L-1.26003 39.354C3.10004 41.1705 7.77662 42.1059 12.5 42.106V-27.894H12.501ZM25.661 -25.262C29.8306 -23.5248 33.6151 -20.9792 36.796 -17.772L-12.904 31.522C-9.57768 34.8756 -5.62026 37.5375 -1.26003 39.354L25.661 -25.262ZM36.695 -17.874L35.366 -19.202L-14.131 30.296L-12.802 31.624L36.695 -17.874ZM35.258 -19.31C27.8174 -26.6858 17.7747 -30.8397 7.29797 -30.875L7.06197 39.125C-0.838449 39.098 -8.41137 35.9652 -14.022 30.403L35.258 -19.31ZM7.17997 -30.875H7.14797V39.125H7.17997V-30.875Z" fill="white"/>
</g>
</svg>
