<svg width="51" height="47" viewBox="0 0 51 47" fill="none" xmlns="http://www.w3.org/2000/svg">
<path d="M25.5 42.1834C24.8696 42.1848 24.2451 42.0712 23.6625 41.8492C23.0799 41.6272 22.5507 41.3012 22.1054 40.89L5.68954 25.7616C4.3925 24.5537 3.36934 23.1199 2.67971 21.5438C1.99009 19.9677 1.6478 18.2808 1.67278 16.5816C1.68531 15.0244 2.03109 13.4848 2.69032 12.0509C3.34954 10.6171 4.30925 9.31716 5.51448 8.22567C6.71971 7.13418 8.14677 6.27255 9.71392 5.69013C11.2811 5.10772 12.9575 4.81597 14.6472 4.83159C16.3671 4.81585 18.073 5.11859 19.6635 5.72184C21.2541 6.3251 22.6971 7.21659 23.9067 8.34343L25.5 9.80983L26.8056 8.60663C29.0624 6.47198 32.0821 5.16335 35.3056 4.92311C38.529 4.68288 41.7377 5.52732 44.3373 7.30003C45.8175 8.34999 47.0378 9.67858 47.9171 11.1973C48.7964 12.716 49.3143 14.39 49.4365 16.1076C49.5587 17.8253 49.2823 19.5472 48.6257 21.1587C47.9691 22.7702 46.9474 24.2343 45.6287 25.4533L28.8945 40.89C28.4491 41.3011 27.9199 41.627 27.3373 41.8489C26.7548 42.0709 26.1304 42.1846 25.5 42.1834ZM14.5819 7.75499C12.0487 7.75274 9.61389 8.65891 7.79278 10.2817C6.86435 11.1051 6.12608 12.0929 5.62233 13.1859C5.11857 14.2788 4.85971 15.4543 4.8613 16.6418C4.84722 17.9479 5.11459 19.2436 5.64791 20.4538C6.18124 21.664 6.96992 22.7645 7.96822 23.6918L24.3841 38.8182C24.5325 38.9557 24.709 39.0647 24.9033 39.1392C25.0976 39.2136 25.3059 39.2519 25.5163 39.2519C25.7267 39.2519 25.9351 39.2136 26.1294 39.1392C26.3237 39.0647 26.5001 38.9557 26.6485 38.8182L43.3969 23.3684C44.3803 22.4432 45.1401 21.3367 45.6263 20.1217C46.1126 18.9066 46.3143 17.6104 46.2182 16.3184C46.1332 15.0131 45.7432 13.7402 45.0749 12.5867C44.4067 11.4332 43.4759 10.4263 42.3463 9.63499C40.3636 8.28774 37.917 7.65076 35.4624 7.84272C33.0078 8.03468 30.7127 9.0425 29.0047 10.6784L26.6322 12.925C26.4842 13.0631 26.3079 13.1728 26.1135 13.2476C25.9192 13.3225 25.7106 13.361 25.5 13.361C25.2893 13.361 25.0808 13.3225 24.8864 13.2476C24.6921 13.1728 24.5158 13.0631 24.3678 12.925L21.6587 10.4283C19.7929 8.72364 17.2745 7.76343 14.6472 7.75499H14.5819Z" fill="#A258FF"/>
<mask id="mask0_37_6551" style="mask-type:luminance" maskUnits="userSpaceOnUse" x="1" y="4" width="49" height="39">
<path d="M25.5 42.1834C24.8696 42.1848 24.2451 42.0712 23.6625 41.8492C23.0799 41.6272 22.5507 41.3012 22.1054 40.89L5.68954 25.7616C4.3925 24.5537 3.36934 23.1199 2.67971 21.5438C1.99009 19.9677 1.6478 18.2808 1.67278 16.5816C1.68531 15.0244 2.03109 13.4848 2.69032 12.0509C3.34954 10.6171 4.30925 9.31716 5.51448 8.22567C6.71971 7.13418 8.14677 6.27255 9.71392 5.69013C11.2811 5.10772 12.9575 4.81597 14.6472 4.83159C16.3671 4.81585 18.073 5.11859 19.6635 5.72184C21.2541 6.3251 22.6971 7.21659 23.9067 8.34343L25.5 9.80983L26.8056 8.60663C29.0624 6.47198 32.0821 5.16335 35.3056 4.92311C38.529 4.68288 41.7377 5.52732 44.3373 7.30003C45.8175 8.34999 47.0378 9.67858 47.9171 11.1973C48.7964 12.716 49.3143 14.39 49.4365 16.1076C49.5587 17.8253 49.2823 19.5472 48.6257 21.1587C47.9691 22.7702 46.9474 24.2343 45.6287 25.4533L28.8945 40.89C28.4491 41.3011 27.9199 41.627 27.3373 41.8489C26.7548 42.0709 26.1304 42.1846 25.5 42.1834ZM14.5819 7.75499C12.0487 7.75274 9.61389 8.65891 7.79278 10.2817C6.86435 11.1051 6.12608 12.0929 5.62233 13.1859C5.11857 14.2788 4.85971 15.4543 4.8613 16.6418C4.84722 17.9479 5.11459 19.2436 5.64791 20.4538C6.18124 21.664 6.96992 22.7645 7.96822 23.6918L24.3841 38.8182C24.5325 38.9557 24.709 39.0647 24.9033 39.1392C25.0976 39.2136 25.3059 39.2519 25.5163 39.2519C25.7267 39.2519 25.9351 39.2136 26.1294 39.1392C26.3237 39.0647 26.5001 38.9557 26.6485 38.8182L43.3969 23.3684C44.3803 22.4432 45.1401 21.3367 45.6263 20.1217C46.1126 18.9066 46.3143 17.6104 46.2182 16.3184C46.1332 15.0131 45.7432 13.7402 45.0749 12.5867C44.4067 11.4332 43.4759 10.4263 42.3463 9.63499C40.3636 8.28774 37.917 7.65076 35.4624 7.84272C33.0078 8.03468 30.7127 9.0425 29.0047 10.6784L26.6322 12.925C26.4842 13.0631 26.3079 13.1728 26.1135 13.2476C25.9192 13.3225 25.7106 13.361 25.5 13.361C25.2893 13.361 25.0808 13.3225 24.8864 13.2476C24.6921 13.1728 24.5158 13.0631 24.3678 12.925L21.6587 10.4283C19.7929 8.72364 17.2745 7.76343 14.6472 7.75499H14.5819Z" fill="white"/>
</mask>
<g mask="url(#mask0_37_6551)">
<path d="M25.4999 42.1834L25.6754 -23.6166H25.3245L25.4999 42.1834ZM22.1054 40.89L72.6239 -5.60807L72.6076 -5.62311L72.5933 -5.63816L22.1054 40.89ZM5.6895 25.7616L-45.0698 72.0378L-44.9351 72.1638L-44.7985 72.2897L5.6895 25.7616ZM1.67274 16.5816L73.0666 17.4689L73.0707 17.2678V17.0704L1.67274 16.5816ZM14.6471 4.83157L13.9331 70.6316L14.6471 70.6372L15.3632 70.6316L14.6471 4.83157ZM23.9067 8.34341L-26.8424 54.629L-26.7118 54.7493L-26.5813 54.8696L23.9067 8.34341ZM25.4999 9.8098L-24.988 56.3398L25.4999 102.866L75.9879 56.3398L25.4999 9.8098ZM26.8055 8.60661L77.2955 55.1347L77.624 54.8302L77.9504 54.5218L26.8055 8.60661ZM44.3373 7.30001L87.9015 -44.8324L87.3589 -45.2197L86.8081 -45.5957L44.3373 7.30001ZM45.6286 25.4533L96.139 71.9588L96.1717 71.9306L96.2023 71.9006L45.6286 25.4533ZM28.8945 40.89L-21.6159 -5.61559L-21.6241 -5.60807L28.8945 40.89ZM14.5819 7.75497L14.5105 73.555H14.5819V7.75497ZM7.79274 10.2817L57.2974 57.6972L57.3586 57.6426L57.4198 57.5881L7.79274 10.2817ZM4.86126 16.6417L76.2572 17.2903L76.2613 16.9312V16.5722L4.86126 16.6417ZM7.96819 23.6917L-42.7095 70.0431L-42.6136 70.1315L-42.5198 70.218L7.96819 23.6917ZM24.3841 38.8182L75.0781 -7.51816L74.9761 -7.61215L74.872 -7.70804L24.3841 38.8182ZM26.6485 38.8182L-23.864 -7.68547L-23.9558 -7.60087L-24.0455 -7.51627L26.6485 38.8182ZM43.3969 23.3684L93.9093 69.8739L94.1602 69.6408L94.4111 69.4058L43.3969 23.3684ZM46.2182 16.3184L-25.0533 20.2664L-25.0329 20.539L-25.0125 20.8134L46.2182 16.3184ZM42.3463 9.63497L85.5433 -42.7569L85.1312 -43.0445L84.7171 -43.3265L42.3463 9.63497ZM29.0047 10.6784L80.1577 56.5861L80.3046 56.4451L80.4514 56.3041L29.0087 10.6784H29.0047ZM26.6321 12.925L77.3261 59.2613L77.5546 59.0489L77.7831 58.8327L26.6321 12.925ZM24.3677 12.925L75.0617 -33.4114L74.9597 -33.5073L74.8577 -33.6013L24.3677 12.925ZM21.6586 10.4283L72.1466 -36.0998L72.0364 -36.2013L71.9263 -36.3028L21.6586 10.4283ZM14.6471 7.75497L14.8879 -58.045H14.6471V7.75497ZM25.3245 -23.6166C34.1087 -23.6354 42.8073 -22.0562 50.9265 -18.9655L-3.6027 102.663C5.68062 106.198 15.6309 108.006 25.6754 107.983L25.3245 -23.6166ZM50.9265 -18.9655C59.0437 -15.8746 66.4176 -11.3351 72.6239 -5.60807L-28.4132 87.388C-21.3159 93.9373 -12.8853 99.1285 -3.6027 102.663L50.9265 -18.9655ZM72.5913 -5.63627L56.1775 -20.7665L-44.7985 72.2897L-28.3826 87.4181L72.5933 -5.63816L72.5913 -5.63627ZM56.4488 -20.5127C61.8145 -15.5149 66.0474 -9.58294 68.9009 -3.06255L-63.5399 46.1502C-59.3078 55.8232 -53.0291 64.6233 -45.0698 72.0378L56.4488 -20.5127ZM68.9009 -3.06255C71.7536 3.45821 73.1696 10.4388 73.0666 17.4689L-69.7191 15.6961C-69.8713 26.1248 -67.7721 36.4772 -63.5399 46.1502L68.8969 -3.06443L68.9009 -3.06255ZM73.0707 17.0704C73.014 24.1683 71.4383 31.1863 68.4338 37.7222L-63.0524 -13.6169C-67.375 -4.21316 -69.6419 5.88412 -69.7232 16.0965L73.0707 17.0704ZM68.4338 37.7222C65.429 44.2575 61.0547 50.1823 55.5614 55.1573L-44.5333 -38.7036C-52.4365 -31.5452 -58.7297 -23.0202 -63.0524 -13.6169L68.4338 37.7222ZM55.5614 55.1573C50.0685 60.1325 43.5646 64.0602 36.4221 66.7155L-16.9953 -55.3322C-27.2719 -51.5122 -36.6299 -45.8615 -44.5333 -38.7036L55.5614 55.1554V55.1573ZM36.4221 66.7155C29.2783 69.3714 21.636 70.7022 13.9331 70.6316L15.355 -60.9628C4.27539 -61.0646 -6.7172 -59.1512 -16.9933 -55.3322L36.4241 66.7136L36.4221 66.7155ZM15.3632 70.6316C7.52402 70.7041 -0.249086 69.3251 -7.4991 66.5764L46.8261 -55.1292C36.3941 -59.0839 25.2066 -61.0676 13.927 -60.9628L15.3632 70.6316ZM-7.4991 66.5764C-14.7498 63.8276 -21.3276 59.7648 -26.8424 54.629L74.6558 -37.9422C66.7212 -45.3303 57.2576 -51.1748 46.8261 -55.1292L-7.4991 66.5764ZM-26.5813 54.8696L-24.988 56.3398L75.9899 -36.7164L74.3947 -38.1847L-26.5813 54.8696ZM75.9879 56.3398L77.2935 55.1366L-23.6804 -37.9196L-24.986 -36.7146L75.9879 56.3398ZM77.9483 54.52C68.1555 63.7842 55.0514 69.464 41.0631 70.5075L29.5473 -60.6639C9.11212 -59.14 -10.0314 -50.8426 -24.3373 -37.3086L77.9504 54.5218L77.9483 54.52ZM41.0651 70.5094C27.0768 71.5523 13.1524 67.8882 1.87062 60.1957L86.8081 -45.5957C70.3273 -56.8332 49.9839 -62.1857 29.5493 -60.662L41.0651 70.5094ZM0.775143 59.4324C-5.78138 54.7798 -11.187 48.8931 -15.0818 42.1646L110.915 -19.7701C105.263 -29.5356 97.4164 -38.0793 87.9015 -44.8324L0.775143 59.4324ZM-15.0818 42.1646C-18.9762 35.4363 -21.2705 28.0205 -21.8117 20.4111L120.682 11.8045C119.897 0.759739 116.567 -10.0041 110.915 -19.7701L-15.0818 42.1646ZM-21.8117 20.4111C-22.3532 12.8016 -21.1292 5.17302 -18.2213 -1.96651L115.47 44.2834C119.691 33.9217 121.468 22.8484 120.682 11.8045L-21.8117 20.4111ZM-18.2213 -1.96651C-15.3127 -9.10608 -10.7868 -15.5926 -4.94501 -20.994L96.2023 71.9006C104.68 64.0605 111.249 54.6458 115.47 44.2834L-18.2173 -1.96651H-18.2213ZM-4.88177 -21.0523L-21.6159 -5.61559L79.4049 87.3955L96.139 71.9588L-4.88177 -21.0523ZM-21.6241 -5.60807C-15.4177 -11.3351 -8.0438 -15.8746 0.0733877 -18.9655L54.6026 102.663C63.8845 99.1283 72.3164 93.9371 79.4131 87.388L-21.6241 -5.60807ZM0.0733877 -18.9655C8.19125 -22.056 16.8921 -23.6367 25.6754 -23.6166L25.3245 107.983C35.3674 108.004 45.3165 106.197 54.6005 102.663L0.0733877 -18.9655ZM14.6553 -58.045C-6.42115 -58.0647 -26.6791 -50.5269 -41.8323 -37.0266L57.4198 57.5881C45.9092 67.8435 30.5208 73.5696 14.5105 73.555L14.6553 -58.045ZM-41.7099 -37.1357C-49.5716 -30.1651 -55.8236 -21.8021 -60.0903 -12.549L71.3347 38.9197C68.076 45.9864 63.3014 52.3734 57.2974 57.6972L-41.7099 -37.1357ZM-60.0903 -12.549C-64.3568 -3.2962 -66.5502 6.65582 -66.5387 16.7094L76.2613 16.5722C76.2698 24.2512 74.594 31.8526 71.3347 38.9197L-60.0903 -12.549ZM-66.5367 15.9931C-66.6434 26.0067 -64.5923 35.9401 -60.5024 45.2177L71.7977 -4.31276C74.8206 2.54477 76.3363 9.88892 76.2572 17.2903L-66.5347 15.9912L-66.5367 15.9931ZM-60.5024 45.2177C-56.4126 54.4964 -50.3647 62.9347 -42.7095 70.0431L58.6459 -22.6597C64.3042 -17.4058 68.7746 -11.169 71.7977 -4.31087L-60.5024 45.2177ZM-42.5177 70.218L-26.1039 85.3463L74.872 -7.70804L58.4561 -22.8364L-42.5198 70.218H-42.5177ZM-26.3099 85.1546C-19.5244 91.46 -11.4512 96.465 -2.55618 99.8806L52.3606 -21.5994C60.8674 -18.3336 68.5884 -13.5478 75.0781 -7.51816L-26.3099 85.1546ZM-2.55618 99.8806C6.33834 103.296 15.8786 105.054 25.5142 105.054V-26.5456C34.7309 -26.5456 43.8538 -24.8649 52.3606 -21.5994L-2.55618 99.8806ZM25.5142 105.054C35.1512 105.054 44.6902 103.295 53.5867 99.8806L-1.33014 -21.6012C7.17668 -24.8668 16.3009 -26.5479 25.5163 -26.5475V105.052L25.5142 105.054ZM53.5867 99.8806C62.4825 96.4653 70.5564 91.4603 77.3425 85.1546L-24.0455 -7.51816C-17.5564 -13.5476 -9.83621 -18.3352 -1.33014 -21.6012L53.5867 99.8806ZM77.1589 85.3238L93.9093 69.8739L-7.11354 -23.1372L-23.864 -7.68736L77.1589 85.3238ZM94.4111 69.4058C102.442 61.8485 108.647 52.8109 112.618 42.8865L-21.3629 -2.64519C-18.3638 -10.1395 -13.678 -16.9642 -7.61334 -22.671L94.4111 69.4058ZM112.618 42.8865C116.59 32.9617 118.237 22.3748 117.453 11.8214L-25.0145 20.8134C-25.6061 12.8441 -24.3617 4.85037 -21.3629 -2.64519L112.618 42.8865ZM117.49 12.3704C116.788 1.60372 113.571 -8.89621 108.059 -18.4109L-17.9051 43.584C-22.0827 36.3761 -24.5211 28.4233 -25.0533 20.2664L117.49 12.3704ZM108.059 -18.4109C102.545 -27.926 94.8631 -36.2308 85.5433 -42.7569L-0.850738 62.0268C-7.91064 57.083 -13.7282 50.7919 -17.9051 43.584L108.059 -18.4109ZM84.7211 -43.3265C68.7961 -54.1469 49.1457 -59.263 29.431 -57.7217L41.4997 73.4083C26.6924 74.5658 11.9336 70.7224 -0.0265797 62.5946L84.7171 -43.3284L84.7211 -43.3265ZM29.431 -57.7217C9.71556 -56.1811 -8.71979 -48.0876 -22.4401 -34.9492L80.4514 56.306C70.1479 66.1727 56.3035 72.2509 41.4976 73.4083L29.431 -57.7217ZM-22.1443 -35.2294L-24.5188 -32.9828L77.7831 58.8327L80.1577 56.5861L-22.1443 -35.2294ZM-24.0619 -33.4114C-17.5728 -39.4409 -9.85258 -44.2266 -1.34646 -47.4926L53.5703 73.9855C62.466 70.5707 70.5399 65.5664 77.3261 59.2613L-24.0619 -33.4114ZM-1.34646 -47.4926C7.16017 -50.759 16.2865 -52.4407 25.502 -52.4408V79.1592C35.1389 79.1592 44.6759 77.4014 53.5703 73.9855L-1.34646 -47.4926ZM25.502 -52.4408C34.7167 -52.4408 43.8416 -50.7582 52.3484 -47.4926L-2.57046 73.9855C6.32409 77.4005 15.8643 79.1589 25.4999 79.1592V-52.4408H25.502ZM52.3484 -47.4926C60.8545 -44.2266 68.5748 -39.4409 75.0638 -33.4114L-26.3242 59.2613C-19.5385 65.5661 -11.4653 70.5704 -2.57046 73.9855L52.3484 -47.4926ZM74.8577 -33.6032L72.1466 -36.0998L-28.8273 56.9564L-26.1161 59.4531L74.8577 -33.6032ZM71.9263 -36.3028C56.7476 -50.1694 36.2605 -57.9787 14.8879 -58.045L14.4064 73.555C-1.71043 73.5041 -17.1592 67.6145 -28.6049 57.1576L71.9263 -36.3028ZM14.6471 -58.045H14.5819V73.555H14.6471V-58.045Z" fill="#A258FF"/>
</g>
<circle cx="14.5" cy="16.5" r="10.5" fill="#A258FF"/>
<circle cx="36.5" cy="16.5" r="10.5" fill="#A258FF"/>
<ellipse cx="33" cy="21.5" rx="9" ry="9.5" fill="#A258FF"/>
<ellipse cx="19" cy="22.5" rx="9" ry="9.5" fill="#A258FF"/>
<circle cx="25" cy="20" r="10" fill="#A258FF"/>
<circle cx="26" cy="30" r="10" fill="#A258FF"/>
</svg>
