<svg width="43" height="37" viewBox="0 0 43 37" fill="none" xmlns="http://www.w3.org/2000/svg">
<g clip-path="url(#clip0_68_2)">
<path d="M21.5 36.388C20.9438 36.3893 20.3928 36.2806 19.8788 36.0682C19.3648 35.8557 18.8979 35.5436 18.505 35.15L4.01997 20.666C2.87576 19.5092 1.97321 18.1362 1.36493 16.6271C0.756656 15.118 0.454803 13.5029 0.476968 11.876C0.488074 10.3852 0.793183 8.91123 1.37482 7.53854C1.95646 6.16585 2.80319 4.92139 3.86652 3.87645C4.92986 2.83151 6.1889 2.00662 7.57153 1.44902C8.95416 0.891419 10.4332 0.612072 11.924 0.626977C13.4414 0.61172 14.9465 0.901352 16.3499 1.47869C17.7533 2.05604 19.0265 2.90933 20.094 3.98798L21.5 5.39398L22.653 4.24098C24.6441 2.19706 27.3085 0.943968 30.1527 0.713772C32.9968 0.483577 35.828 1.29188 38.122 2.98898C39.4275 3.99464 40.5039 5.26689 41.2793 6.72103C42.0548 8.17517 42.5115 9.77782 42.6192 11.4223C42.7269 13.0667 42.483 14.7153 41.9037 16.2581C41.3245 17.8009 40.4233 19.2027 39.26 20.37L24.495 35.15C24.1021 35.5436 23.6352 35.8557 23.1211 36.0682C22.6071 36.2806 22.0562 36.3893 21.5 36.388ZM11.867 3.42498C9.63194 3.4229 7.48377 4.29042 5.87697 5.84398C5.05758 6.63217 4.40595 7.57785 3.96121 8.62421C3.51648 9.67057 3.28782 10.796 3.28897 11.933C3.27662 13.1836 3.51263 14.4242 3.98331 15.5828C4.454 16.7415 5.15 17.7953 6.03097 18.683L20.516 33.167C20.6468 33.2987 20.8023 33.4033 20.9737 33.4746C21.145 33.546 21.3288 33.5827 21.5145 33.5827C21.7001 33.5827 21.8839 33.546 22.0553 33.4746C22.2266 33.4033 22.3822 33.2987 22.513 33.167L37.293 18.373C38.1603 17.487 38.8303 16.4275 39.2591 15.2642C39.6879 14.1008 39.8658 12.8599 39.781 11.623C39.7057 10.3734 39.3615 9.15477 38.7717 8.05052C38.182 6.94627 37.3607 5.98245 36.364 5.22498C34.6148 3.93537 32.4565 3.32556 30.2912 3.50917C28.1258 3.69278 26.101 4.65727 24.594 6.22298L22.498 8.37498C22.3672 8.50656 22.2117 8.61099 22.0404 8.68225C21.8692 8.7535 21.6855 8.79019 21.5 8.79019C21.3145 8.79019 21.1308 8.7535 20.9595 8.68225C20.7882 8.61099 20.6327 8.50656 20.502 8.37498L18.111 5.98498C16.4644 4.35234 14.2417 3.43282 11.923 3.42498H11.867Z" fill="white"/>
<mask id="mask0_68_2" style="mask-type:luminance" maskUnits="userSpaceOnUse" x="0" y="0" width="43" height="37">
<path d="M21.5 36.388C20.9438 36.3893 20.3928 36.2806 19.8788 36.0682C19.3648 35.8557 18.8979 35.5436 18.505 35.15L4.01997 20.666C2.87576 19.5092 1.97321 18.1362 1.36493 16.6271C0.756656 15.118 0.454803 13.5029 0.476968 11.876C0.488074 10.3852 0.793183 8.91123 1.37482 7.53854C1.95646 6.16585 2.80319 4.92139 3.86652 3.87645C4.92986 2.83151 6.1889 2.00662 7.57153 1.44902C8.95416 0.891419 10.4332 0.612072 11.924 0.626977C13.4414 0.61172 14.9465 0.901352 16.3499 1.47869C17.7533 2.05604 19.0265 2.90933 20.094 3.98798L21.5 5.39398L22.653 4.24098C24.6441 2.19706 27.3085 0.943968 30.1527 0.713772C32.9968 0.483577 35.828 1.29188 38.122 2.98898C39.4275 3.99464 40.5039 5.26689 41.2793 6.72103C42.0548 8.17517 42.5115 9.77782 42.6192 11.4223C42.7269 13.0667 42.483 14.7153 41.9037 16.2581C41.3245 17.8009 40.4233 19.2027 39.26 20.37L24.495 35.15C24.1021 35.5436 23.6352 35.8557 23.1211 36.0682C22.6071 36.2806 22.0562 36.3893 21.5 36.388ZM11.867 3.42498C9.63194 3.4229 7.48377 4.29042 5.87697 5.84398C5.05758 6.63217 4.40595 7.57785 3.96121 8.62421C3.51648 9.67057 3.28782 10.796 3.28897 11.933C3.27662 13.1836 3.51263 14.4242 3.98331 15.5828C4.454 16.7415 5.15 17.7953 6.03097 18.683L20.516 33.167C20.6468 33.2987 20.8023 33.4033 20.9737 33.4746C21.145 33.546 21.3288 33.5827 21.5145 33.5827C21.7001 33.5827 21.8839 33.546 22.0553 33.4746C22.2266 33.4033 22.3822 33.2987 22.513 33.167L37.293 18.373C38.1603 17.487 38.8303 16.4275 39.2591 15.2642C39.6879 14.1008 39.8658 12.8599 39.781 11.623C39.7057 10.3734 39.3615 9.15477 38.7717 8.05052C38.182 6.94627 37.3607 5.98245 36.364 5.22498C34.6148 3.93537 32.4565 3.32556 30.2912 3.50917C28.1258 3.69278 26.101 4.65727 24.594 6.22298L22.498 8.37498C22.3672 8.50656 22.2117 8.61099 22.0404 8.68225C21.8692 8.7535 21.6855 8.79019 21.5 8.79019C21.3145 8.79019 21.1308 8.7535 20.9595 8.68225C20.7882 8.61099 20.6327 8.50656 20.502 8.37498L18.111 5.98498C16.4644 4.35234 14.2417 3.43282 11.923 3.42498H11.867Z" fill="white"/>
</mask>
<g mask="url(#mask0_68_2)">
<path d="M21.4999 36.388L21.5859 1.38799H21.4139L21.4999 36.388ZM18.5049 35.15L43.2689 10.417L43.2609 10.409L43.2529 10.401L18.5049 35.15ZM4.01992 20.666L-20.8621 45.28L-20.7951 45.347L-20.7281 45.414L4.01992 20.666ZM0.476921 11.876L35.4729 12.348L35.4749 12.242V12.135L0.477921 11.877L0.476921 11.876ZM11.9239 0.626987L11.5749 35.626L11.9249 35.629L12.2759 35.626L11.9239 0.626987ZM20.0939 3.98799L-4.78308 28.608L-4.71908 28.673L-4.65508 28.737L20.0939 3.98799ZM21.4999 5.39399L-3.24908 30.142L21.4999 54.892L46.2489 30.142L21.4999 5.39399ZM22.6529 4.24099L47.4019 28.989L47.5639 28.828L47.7239 28.664L22.6529 4.23999V4.24099ZM38.1219 2.98899L59.4769 -24.741L59.2099 -24.947L58.9399 -25.147L38.1219 2.98899ZM39.2599 20.37L64.0199 45.107L64.0359 45.092L64.0509 45.076L39.2599 20.37ZM24.4949 35.15L-0.265079 10.413L-0.269081 10.417L24.4949 35.15ZM11.8669 3.42499L11.8309 38.425H11.8669V3.42499ZM5.87692 5.84399L30.1429 31.065L30.1729 31.036L30.2029 31.007L5.87692 5.84399ZM3.28892 11.933L38.2869 12.278L38.2889 12.087V11.897L3.28892 11.933ZM6.03092 18.683L-18.8101 43.338L-18.7631 43.385L-18.7171 43.432L6.03292 18.682L6.03092 18.683ZM20.5159 33.167L45.3659 8.51999L45.3159 8.46999L45.2639 8.41799L20.5159 33.167ZM22.5129 33.167L-2.24808 8.42999L-2.29308 8.47499L-2.33708 8.51999L22.5129 33.167ZM37.2929 18.373L62.0529 43.11L62.1759 42.987L62.2979 42.862L37.2929 18.373ZM39.7809 11.623L4.84392 13.723L4.85392 13.869L4.86392 14.015L39.7809 11.623ZM36.3639 5.22499L57.5399 -22.643L57.3389 -22.796L57.1349 -22.946L36.3649 5.22499H36.3639ZM24.5939 6.22299L49.6679 30.643L49.7399 30.568L49.8119 30.493L24.5939 6.22299ZM22.4979 8.37499L47.3479 33.022L47.4609 32.908L47.5729 32.794L22.4979 8.37499ZM20.9599 8.68299L7.49792 40.99L20.9579 8.68199L20.9599 8.68299ZM20.5019 8.37499L45.3519 -16.272L45.3009 -16.323L45.2509 -16.373L20.4999 8.37399L20.5019 8.37499ZM18.1109 5.98499L42.8599 -18.765L42.8059 -18.818L42.7519 -18.872L18.1099 5.98399L18.1109 5.98499ZM11.9229 3.42499L12.0419 -31.575H11.9239L11.9229 3.42499ZM21.4139 1.38799C25.4719 1.37799 29.4919 2.16999 33.2439 3.71999L6.51292 68.416C11.2919 70.3902 16.4142 71.3999 21.5849 71.387L21.4129 1.38699L21.4139 1.38799ZM33.2439 3.71999C36.9944 5.26965 40.4014 7.54564 43.2689 10.417L-6.26008 59.883C-2.60623 63.5416 1.73404 66.4416 6.51292 68.416L33.2439 3.71999ZM43.2539 10.401L28.7679 -4.08301L-20.7281 45.414L-6.24408 59.9L43.2529 10.4L43.2539 10.401ZM28.9019 -3.94901C31.0234 -1.80426 32.6968 0.741152 33.8249 3.53899L-31.0971 29.715C-28.7519 35.531 -25.2726 40.8221 -20.8621 45.28L28.9019 -3.94901ZM33.8249 3.53899C34.9528 6.33699 35.5137 9.33147 35.4729 12.348L-34.5211 11.405C-34.6058 17.675 -33.4418 23.8992 -31.0971 29.715L33.8259 3.53999L33.8249 3.53899ZM35.4749 12.135C35.4517 15.2479 34.8145 18.3257 33.5999 21.192L-30.8531 -6.11401C-33.2307 -0.502235 -34.4778 5.52348 -34.5231 11.618L35.4759 12.135H35.4749ZM33.5999 21.192C32.3864 24.0585 30.6194 26.6574 28.3999 28.84L-20.6661 -21.085C-25.0133 -16.8133 -28.4751 -11.7258 -30.8531 -6.11401L33.6009 21.192H33.5999ZM28.3999 28.84C26.1797 31.022 23.5509 32.7445 20.6639 33.909L-5.52008 -31.01C-11.1723 -28.7304 -16.3193 -25.358 -20.6661 -21.086L28.3999 28.84ZM20.6639 33.909C17.777 35.0735 14.6877 35.6569 11.5749 35.626L12.2729 -34.371C6.17826 -34.4319 0.132461 -33.2898 -5.52008 -31.01L20.6629 33.908L20.6639 33.909ZM12.2759 35.626C9.10763 35.6579 5.96618 35.0533 3.03592 33.848L29.6659 -30.889C23.9285 -33.2493 17.7755 -34.4334 11.5719 -34.371L12.2759 35.626ZM3.03592 33.848C0.105386 32.6423 -2.55318 30.8604 -4.78208 28.608L44.9719 -20.632C40.6078 -25.0417 35.4026 -28.53 29.6649 -30.89L3.03492 33.847L3.03592 33.848ZM-4.65408 28.738L-3.24808 30.143L46.2499 -19.355L44.8429 -20.761L-4.65408 28.736V28.738ZM46.2499 30.143L47.4029 28.99L-2.09508 -20.507L-3.24808 -19.354L46.2499 30.143ZM47.7239 28.665C43.808 32.6841 38.5681 35.1479 32.9749 35.6L27.3299 -34.172C16.0488 -33.2592 5.48062 -28.2891 -2.41708 -20.182L47.7239 28.664V28.665ZM32.9749 35.6C27.3823 36.0521 21.8153 34.4623 17.3049 31.125L58.9399 -25.147C49.8413 -31.8789 38.6113 -35.0851 27.3299 -34.172L32.9749 35.6ZM16.7669 30.72C14.1334 28.6919 11.9622 26.1259 10.3979 23.193L72.1609 -9.75101C69.0456 -15.5919 64.7216 -20.7019 59.4769 -24.741L16.7669 30.72ZM10.3979 23.193C8.83365 20.2602 7.91219 17.0278 7.69492 13.711L77.5449 9.13299C77.1117 2.52771 75.2763 -3.90949 72.1609 -9.75001L10.3979 23.193ZM7.69492 13.711C7.47775 10.3944 7.96967 7.0686 9.13792 3.95699L74.6719 28.558C76.9985 22.3602 77.9779 15.7389 77.5449 9.13299L7.69492 13.711ZM9.13792 3.95699C10.3059 0.844967 12.1236 -1.98247 14.4699 -4.33701L64.0519 45.075C68.7249 40.3861 72.3452 34.7554 74.6719 28.558L9.13792 3.95699ZM14.4999 -4.36701L-0.265079 10.413L49.2549 59.887L64.0219 45.107L14.4999 -4.36701ZM-0.269081 10.417C2.59875 7.54553 6.00611 5.26954 9.75692 3.71999L36.4859 68.416C41.2648 66.4416 45.6061 63.5416 49.2599 59.883L-0.269081 10.417ZM9.75692 3.71999C13.5076 2.17049 17.5277 1.37795 21.5859 1.38799L21.4139 71.388C26.5847 71.4006 31.707 70.3906 36.4859 68.416L9.75692 3.71999ZM11.9029 -31.575C0.5774 -31.5867 -10.3084 -27.1918 -18.4511 -19.32L30.2029 31.007C25.2743 35.7718 18.6862 38.4321 11.8309 38.425L11.9029 -31.575ZM-18.3901 -19.378C-22.6079 -15.3198 -25.962 -10.451 -28.2511 -5.06401L36.1729 22.312C34.7732 25.6061 32.7221 28.5834 30.1429 31.065L-18.3901 -19.378ZM-28.2511 -5.06401C-30.5403 0.322886 -31.7172 6.11687 -31.7111 11.97L38.2889 11.897C38.2925 15.4761 37.5728 19.018 36.1729 22.312L-28.2511 -5.06401ZM-31.7091 11.588C-31.7672 17.4704 -30.6571 23.3058 -28.4431 28.756L36.4099 2.40999C37.6824 5.54272 38.3204 8.89686 38.2869 12.278L-31.7091 11.588ZM-28.4431 28.756C-26.229 34.2061 -22.955 39.1626 -18.8111 43.338L30.8729 -5.97201C33.2551 -3.57199 35.1372 -0.72292 36.4099 2.40999L-28.4431 28.756ZM-18.7171 43.432L-4.23308 57.916L45.2639 8.41799L30.7799 -6.06601L-18.7181 43.432H-18.7171ZM-4.33408 57.814C-0.94987 61.2266 3.07656 63.9353 7.51292 65.784L34.4329 1.16699C38.5269 2.87225 42.2427 5.37131 45.3659 8.51999L-4.33408 57.814ZM7.51292 65.784C11.9494 67.6323 16.7079 68.5839 21.5139 68.584V-1.41601C25.9479 -1.41601 30.3379 -0.539012 34.4329 1.16699L7.51292 65.784ZM21.5139 68.584C26.3199 68.584 31.0779 67.632 35.5149 65.784L8.59492 1.16599C12.6888 -0.539737 17.0799 -1.41796 21.5149 -1.41801V68.582L21.5139 68.584ZM35.5149 65.784C39.9513 63.9353 43.9777 61.2266 47.3619 57.814L-2.33708 8.51999C0.786464 5.37124 4.5016 2.87218 8.59592 1.16699L35.5159 65.783L35.5149 65.784ZM47.2729 57.904L62.0529 43.11L12.5319 -6.36401L-2.24808 8.42999L47.2729 57.904ZM62.2979 42.862C66.6205 38.4484 69.9603 33.1701 72.0979 27.374L6.41992 3.15599C7.69905 -0.313468 9.69783 -3.473 12.2849 -6.11501L62.2979 42.862ZM72.0979 27.374C74.2352 21.5779 75.122 15.3952 74.6999 9.23199L4.86192 14.015C4.60931 10.3256 5.14027 6.62554 6.41992 3.15599L72.0959 27.374H72.0979ZM74.7179 9.52399C74.3405 3.24113 72.61 -2.886 69.6449 -8.43801L7.89992 24.54C6.11442 21.1968 5.07231 17.5073 4.84492 13.724L74.7189 9.52499L74.7179 9.52399ZM69.6449 -8.43801C66.6801 -13.9896 62.5509 -18.8351 57.5399 -22.643L15.1899 33.093C12.1722 30.8 9.68544 27.8821 7.89992 24.539L69.6449 -8.43801ZM57.1349 -22.946C48.5512 -29.2748 37.9594 -32.2673 27.3329 -31.366L33.2489 38.384C26.9537 38.9179 20.679 37.1452 15.5939 33.396L57.1349 -22.946ZM27.3329 -31.366C16.7063 -30.4645 6.7699 -25.7305 -0.62508 -18.046L49.8119 30.493C45.4308 35.045 39.5442 37.8502 33.2489 38.384L27.3329 -31.366ZM-0.481079 -18.196L-2.57608 -16.044L47.5729 32.794L49.6679 30.643L-0.48008 -18.195L-0.481079 -18.196ZM-2.35108 -16.272C0.771581 -19.4204 4.48667 -21.9195 8.57992 -23.625L35.4999 40.99C39.9362 39.1416 43.9626 36.4332 47.3469 33.021L-2.35308 -16.273L-2.35108 -16.272ZM8.57992 -23.625C12.6737 -25.3311 17.0648 -26.2086 21.4999 -26.209V43.79C26.306 43.7899 31.0635 42.8382 35.4999 40.99L8.58092 -23.625H8.57992ZM21.4999 -26.209C25.9349 -26.209 30.3259 -25.332 34.4199 -23.626L7.49792 40.99C11.9344 42.8383 16.6939 43.7899 21.4999 43.79L21.4989 -26.21L21.4999 -26.209ZM34.4199 -23.626C38.5135 -21.9206 42.229 -19.4215 45.3519 -16.273L-4.34808 33.021C-0.963836 36.4336 3.06258 39.1423 7.49892 40.991L34.4199 -23.626ZM45.2499 -16.375L42.8599 -18.765L-6.63808 30.732L-4.24808 33.122L45.2509 -16.373L45.2499 -16.375ZM42.7519 -18.872C34.5797 -26.9735 23.5492 -31.5361 12.0419 -31.575L11.8049 38.424C4.93467 38.4008 -1.6509 35.6768 -6.53008 30.84L42.7509 -18.873L42.7519 -18.872ZM11.9219 -31.575H11.8659L11.8669 38.425H11.9219V-31.575Z" fill="white"/>
</g>
</g>
<defs>
<clipPath id="clip0_68_2">
<rect width="43" height="37" fill="white"/>
</clipPath>
</defs>
</svg>
