<svg width="45" height="45" viewBox="0 0 45 45" fill="none" xmlns="http://www.w3.org/2000/svg">
<g clip-path="url(#clip0_68_10)">
<mask id="mask0_68_10" style="mask-type:luminance" maskUnits="userSpaceOnUse" x="0" y="0" width="45" height="45">
<path d="M0 0H45V45H0V0Z" fill="white"/>
</mask>
<g mask="url(#mask0_68_10)">
<path d="M22.5 3.75C15.253 3.75 9.375 9.628 9.375 16.875C9.375 26.719 22.5 41.25 22.5 41.25C22.5 41.25 35.625 26.719 35.625 16.875C35.625 9.628 29.747 3.75 22.5 3.75ZM22.5 21.563C21.2568 21.5625 20.0647 21.0684 19.1857 20.1893C18.3066 19.3103 17.8125 18.1182 17.812 16.875C17.8125 15.6318 18.3066 14.4397 19.1857 13.5607C20.0647 12.6816 21.2568 12.1875 22.5 12.187C23.7432 12.1875 24.9353 12.6816 25.8143 13.5607C26.6934 14.4397 27.1875 15.6318 27.188 16.875C27.1875 18.1182 26.6934 19.3103 25.8143 20.1893C24.9353 21.0684 23.7432 21.5625 22.5 21.563Z" fill="white"/>
</g>
</g>
<defs>
<clipPath id="clip0_68_10">
<rect width="45" height="45" fill="white"/>
</clipPath>
</defs>
</svg>
