<svg width="35" height="39" viewBox="0 0 35 39" fill="none" xmlns="http://www.w3.org/2000/svg">
<path d="M17.5 0.75C10.016 0.75 3.958 6.909 3.958 14.457V21.027C2.108 21.842 0.625 23.359 0.625 25.495C0.625 28.36 2.965 30.75 5.833 30.75H29.168C32.035 30.75 34.375 28.36 34.375 25.495C34.375 23.359 32.892 21.842 31.043 21.027V14.457C31.043 6.91 24.983 0.75 17.5 0.75ZM27.293 14.457C27.296 16.947 27.294 19.573 27.278 22.016C27.223 23.086 28.076 23.986 29.035 23.986C29.993 23.986 30.625 24.614 30.625 25.495C30.625 26.376 29.993 27 29.167 27H5.832C5.006 27 4.375 26.376 4.375 25.495C4.375 24.614 5.006 23.986 5.964 23.985C6.921 23.985 7.774 23.089 7.722 22.02C7.683 19.539 7.707 16.972 7.707 14.457C7.707 8.893 12.057 4.5 17.499 4.5C22.942 4.5 27.293 8.893 27.293 14.457ZM13.75 34.5C13.2527 34.5 12.7758 34.6975 12.4242 35.0492C12.0725 35.4008 11.875 35.8777 11.875 36.375C11.875 36.8723 12.0725 37.3492 12.4242 37.7008C12.7758 38.0525 13.2527 38.25 13.75 38.25H21.25C21.7473 38.25 22.2242 38.0525 22.5758 37.7008C22.9275 37.3492 23.125 36.8723 23.125 36.375C23.125 35.8777 22.9275 35.4008 22.5758 35.0492C22.2242 34.6975 21.7473 34.5 21.25 34.5H13.75Z" fill="white"/>
</svg>
