<svg width="35" height="39" viewBox="0 0 35 39" fill="none" xmlns="http://www.w3.org/2000/svg">
<path d="M25.8209 11.4322C24.0939 9.77624 21.5233 9.58733 19.6149 10.8404C18.312 9.82094 16.6573 9.53221 15.153 9.96272L14.3751 4.42736C13.9848 1.65013 11.4318 -0.295139 8.68423 0.091012C5.93662 0.477163 4.01879 3.05075 4.4091 5.82798L6.11143 17.9407C4.53651 17.594 2.80469 18.0149 1.53814 19.2635C-0.438327 21.2121 -0.483447 24.4027 1.42851 26.4199L11.302 36.8378C12.4201 38.0173 14.0418 38.5874 15.6399 38.3628L29.0424 36.4792C31.3579 36.1537 33.1433 34.2547 33.3482 31.9033L34.1529 22.6679C34.1864 22.2809 34.1761 21.8914 34.1222 21.5067L33.2347 15.1921C32.7398 11.6707 28.8922 9.72543 25.8209 11.4322ZM6.04298 21.9035L8.48446 24.4794C9.29404 25.3335 10.7333 24.6453 10.5688 23.4749L8.01738 5.32087C7.75199 3.4325 10.5008 3.04312 10.7666 4.9345L12.6154 18.0899C12.7088 18.7542 13.323 19.2171 13.9873 19.1237L14.5027 19.0512C15.1671 18.9579 15.6298 18.3437 15.5365 17.6794L15.1667 15.0483C14.9013 13.16 17.6501 12.7706 17.9159 14.662L18.2857 17.293C18.379 17.9573 18.9932 18.4202 19.6575 18.3268L20.1731 18.2543C20.8374 18.161 21.3002 17.5467 21.2069 16.8825L20.985 15.3039C20.7196 13.4155 23.4684 13.0261 23.7342 14.9175L23.956 16.4961C24.0494 17.1604 24.6636 17.6232 25.3279 17.5299L25.8433 17.4574C26.5076 17.3641 26.9704 16.7498 26.8771 16.0856C26.6117 14.1972 29.3605 13.8079 29.6263 15.6992L30.5137 22.0138C30.5295 22.1257 30.5325 22.2394 30.5227 22.3516L29.7179 31.5872C29.6599 32.2533 29.1736 32.7811 28.5352 32.8708L15.1328 34.7544C14.6991 34.8154 14.2557 34.6571 13.9467 34.3311L4.07215 23.9134C2.77554 22.5453 4.74694 20.5362 6.04298 21.9035ZM14.4674 29.9418L13.4532 22.7251C13.3598 22.0607 13.7553 21.4561 14.3365 21.3744L14.7876 21.311C15.3688 21.2293 15.9157 21.7015 16.0091 22.3659L17.0233 29.5826C17.1167 30.2469 16.7212 30.8516 16.1399 30.9332L15.6889 30.9966C15.1075 31.0783 14.5608 30.6061 14.4674 29.9418ZM20.1376 29.1449L19.1234 21.9282C19.03 21.2639 19.4255 20.6592 20.0068 20.5775L20.4578 20.5141C21.0391 20.4324 21.5859 20.9046 21.6793 21.569L22.6935 28.7857C22.7869 29.45 22.3914 30.0547 21.8101 30.1363L21.3591 30.1997C20.7778 30.2814 20.231 29.8092 20.1376 29.1449ZM25.8079 28.348L24.7937 21.1313C24.7003 20.4669 25.0958 19.8622 25.6771 19.7806L26.1281 19.7172C26.7094 19.6355 27.2562 20.1077 27.3496 20.772L28.3638 27.9887C28.4572 28.6531 28.0617 29.2578 27.4804 29.3394L27.0294 29.4028C26.4481 29.4845 25.9013 29.0123 25.8079 28.348Z" fill="#7000FF" fill-opacity="0.5"/>
</svg>
