<svg width="50" height="50" viewBox="0 0 50 50" fill="none" xmlns="http://www.w3.org/2000/svg">
<g clip-path="url(#clip0_992_2)">
<path d="M15.625 44.9219C17.1352 44.9219 18.3594 43.6977 18.3594 42.1875C18.3594 40.6773 17.1352 39.4531 15.625 39.4531C14.1148 39.4531 12.8906 40.6773 12.8906 42.1875C12.8906 43.6977 14.1148 44.9219 15.625 44.9219Z" fill="white"/>
<path d="M35.9375 44.9219C37.4477 44.9219 38.6719 43.6977 38.6719 42.1875C38.6719 40.6773 37.4477 39.4531 35.9375 39.4531C34.4273 39.4531 33.2031 40.6773 33.2031 42.1875C33.2031 43.6977 34.4273 44.9219 35.9375 44.9219Z" fill="white"/>
<path d="M8.26172 14.0625H43.3008L38.1445 32.1094C37.9606 32.7643 37.5666 33.3408 37.0232 33.7501C36.4798 34.1594 35.817 34.379 35.1367 34.375H16.4258C15.7455 34.379 15.0827 34.1594 14.5393 33.7501C13.9959 33.3408 13.6019 32.7643 13.418 32.1094L6.34766 7.38281C6.25422 7.05616 6.05687 6.76886 5.78549 6.56445C5.51411 6.36003 5.1835 6.24964 4.84375 6.25H1.5625" stroke="white" stroke-width="3" stroke-linecap="round" stroke-linejoin="round"/>
</g>
<defs>
<clipPath id="clip0_992_2">
<rect width="50" height="50" fill="white"/>
</clipPath>
</defs>
</svg>
