<svg width="124" height="124" viewBox="0 0 124 124" fill="none" xmlns="http://www.w3.org/2000/svg">
<path d="M46.5003 107.208H31.0003C29.2087 107.284 27.4197 107.006 25.7355 106.39C24.0514 105.775 22.5053 104.833 21.1856 103.619C19.8659 102.404 18.7986 100.942 18.0447 99.3147C17.2908 97.6877 16.8651 95.928 16.792 94.1362V29.863C16.8651 28.0713 17.2908 26.3116 18.0447 24.6845C18.7986 23.0575 19.8659 21.5951 21.1856 20.381C22.5053 19.1669 24.0514 18.2249 25.7355 17.609C27.4197 16.993 29.2087 16.7152 31.0003 16.7914H46.5003C47.528 16.7914 48.5137 17.1996 49.2404 17.9263C49.9671 18.6531 50.3753 19.6387 50.3753 20.6664C50.3753 21.6941 49.9671 22.6797 49.2404 23.4064C48.5137 24.1332 47.528 24.5414 46.5003 24.5414H31.0003C29.4662 24.408 27.9396 24.8702 26.7372 25.8322C25.5347 26.7941 24.7486 28.1821 24.542 29.708V94.1362C24.7486 95.6624 25.5347 97.0502 26.7372 98.0122C27.9396 98.9742 29.4662 99.4367 31.0003 99.3028H46.5003C47.528 99.3028 48.5137 99.7115 49.2404 100.438C49.9671 101.165 50.3753 102.15 50.3753 103.178C50.3753 104.206 49.9671 105.191 49.2404 105.918C48.5137 106.645 47.528 107.053 46.5003 107.053V107.208Z" fill="#F54B64"/>
<path d="M82.667 86.5411C82.1581 86.5437 81.6533 86.4445 81.1832 86.2492C80.713 86.0539 80.2862 85.7666 79.9287 85.4045C79.2033 84.678 78.7956 83.6933 78.7956 82.6661C78.7956 81.6395 79.2033 80.6542 79.9287 79.9278L97.857 61.9995L79.9287 44.0712C79.5479 43.7164 79.2426 43.2887 79.0307 42.8133C78.8189 42.338 78.7052 41.8248 78.6959 41.3045C78.6866 40.7843 78.7827 40.2674 78.9775 39.7849C79.1723 39.3024 79.4621 38.8641 79.8305 38.4962C80.1984 38.1282 80.6365 37.8381 81.1191 37.6432C81.6017 37.4484 82.1183 37.3526 82.6386 37.3618C83.1589 37.371 83.672 37.4849 84.1473 37.6967C84.6226 37.9084 85.0504 38.2138 85.4054 38.5945L106.072 59.2611C106.798 59.9876 107.205 60.9729 107.205 61.9995C107.205 63.0266 106.798 64.0114 106.072 64.7378L85.4054 85.4045C85.0478 85.7666 84.6211 86.0539 84.1509 86.2492C83.6807 86.4445 83.1759 86.5437 82.667 86.5411Z" fill="#F54B64"/>
<path d="M103.333 65.875H46.5C45.4723 65.875 44.4867 65.4668 43.76 64.7399C43.0333 64.0135 42.625 63.0276 42.625 62C42.625 60.9723 43.0333 59.9865 43.76 59.2601C44.4867 58.5332 45.4723 58.125 46.5 58.125H103.333C104.361 58.125 105.347 58.5332 106.073 59.2601C106.8 59.9865 107.208 60.9723 107.208 62C107.208 63.0276 106.8 64.0135 106.073 64.7399C105.347 65.4668 104.361 65.875 103.333 65.875Z" fill="#F54B64"/>
</svg>
