<svg width="69" height="50" viewBox="0 0 69 50" fill="none" xmlns="http://www.w3.org/2000/svg">
<path d="M16.0112 50C12.6873 50 9.62079 49.3914 6.8118 48.1742C4.04963 46.9101 1.77903 45.1311 0 42.8371L6.32022 35.2528C7.6779 37.0318 9.1058 38.3895 10.6039 39.3258C12.1021 40.2154 13.7172 40.6601 15.4494 40.6601C20.0843 40.6601 22.4017 37.9448 22.4017 32.514V9.12921H5.1264V0H33.7079V31.882C33.7079 37.9682 32.2097 42.5094 29.2135 45.5056C26.2172 48.5019 21.8165 50 16.0112 50Z" fill="white"/>
<path d="M23.4083 48.2795V0H47.4251C53.6049 0 58.2397 1.17041 61.3296 3.51124C64.4663 5.85206 66.0347 8.94195 66.0347 12.7809C66.0347 15.3558 65.4026 17.603 64.1386 19.5225C62.8746 21.3951 61.1423 22.8464 58.942 23.8764C56.7416 24.9064 54.2135 25.4213 51.3577 25.4213L52.692 22.5421C55.7819 22.5421 58.5206 23.0571 60.9083 24.0871C63.2959 25.0702 65.1452 26.5449 66.456 28.5112C67.8137 30.4775 68.4925 32.8886 68.4925 35.7444C68.4925 39.9579 66.8305 43.2584 63.5066 45.6461C60.1826 47.9869 55.2903 49.1573 48.8296 49.1573L23.4083 48.2795ZM34.7144 40.5899H47.9869C50.9364 40.5899 53.1601 40.1217 54.6583 39.1854C56.2032 38.2022 56.9757 36.6573 56.9757 34.5506C56.9757 32.4906 56.2032 30.9691 54.6583 29.986C53.1601 28.956 50.9364 28.441 47.9869 28.441H33.8717V20.1545H46.0206C48.7828 20.1545 50.8895 19.6863 52.3408 18.75C53.839 17.7669 54.588 16.2921 54.588 14.3258C54.588 12.4064 53.839 10.9785 52.3408 10.0421C50.8895 9.05899 48.7828 8.56742 46.0206 8.56742H34.7144V40.5899Z" fill="white"/>
</svg>
