<svg width="50" height="50" viewBox="0 0 50 50" fill="none" xmlns="http://www.w3.org/2000/svg">
<g clip-path="url(#clip0_39_6567)">
<path d="M48.7713 42.8941L35.8042 29.9241C37.7321 26.9116 38.7918 23.4257 38.8666 19.8499C38.9414 16.2741 38.0284 12.747 36.228 9.65655C34.4277 6.56612 31.8098 4.03217 28.6624 2.33346C25.515 0.63476 21.9599 -0.162857 18.3885 0.0283625C13.6024 0.2864 9.08048 2.30397 5.69156 5.69342C2.30264 9.08287 0.285771 13.6051 0.0284778 18.3912C-0.230208 23.1774 1.28818 27.8905 4.29214 31.6256C7.29609 35.3607 11.5739 37.8546 16.3042 38.6284C21.0328 39.3998 25.8813 38.3984 29.9185 35.8141L42.8842 48.7826C43.665 49.5625 44.7235 50.0006 45.827 50.0006C46.9306 50.0006 47.9891 49.5625 48.7699 48.7826C49.1592 48.3976 49.4683 47.9392 49.6792 47.434C49.8901 46.9287 49.9987 46.3866 49.9987 45.8391C49.9987 45.2916 49.8901 44.7495 49.6792 44.2442C49.4683 43.7389 49.1592 43.2805 48.7699 42.8955L48.7713 42.8941ZM5.56562 19.4541C5.56587 16.7081 6.38015 14.0238 7.90553 11.7404C9.43091 9.45702 11.5989 7.67708 14.1356 6.62551C16.0322 5.83946 18.0796 5.48395 20.1302 5.58459C22.1808 5.68523 24.1835 6.23951 25.994 7.2075C27.8046 8.17548 29.3778 9.53306 30.6004 11.1824C31.823 12.8317 32.6645 14.7317 33.0642 16.7455C33.4641 18.7589 33.4127 20.8359 32.9138 22.8271C32.4148 24.8182 31.4807 26.674 30.1786 28.2609C28.8766 29.8478 27.2389 31.1264 25.3836 32.0046C23.5282 32.8828 21.5012 33.3388 19.4485 33.3398C17.6251 33.34 15.8195 32.9809 14.1349 32.2831C12.4502 31.5853 10.9196 30.5625 9.63039 29.273C8.34117 27.9835 7.31863 26.4527 6.62119 24.7679C5.92374 23.0832 5.56506 21.2775 5.56562 19.4541Z" fill="white"/>
</g>
<defs>
<clipPath id="clip0_39_6567">
<rect width="50" height="50" fill="white"/>
</clipPath>
</defs>
</svg>
