<svg width="50" height="50" viewBox="0 0 50 50" fill="none" xmlns="http://www.w3.org/2000/svg">
<path d="M25 29.1667C30.7529 29.1667 35.4166 23.5702 35.4166 16.6667C35.4166 9.76311 30.7529 4.16667 25 4.16667C19.247 4.16667 14.5833 9.76311 14.5833 16.6667C14.5833 23.5702 19.247 29.1667 25 29.1667Z" fill="white"/>
<path d="M45.4167 39.7917C43.5417 36.0417 40 32.9167 35.4167 31.0417C34.1667 30.625 32.7083 30.625 31.6667 31.25C29.5833 32.5 27.5 33.125 25 33.125C22.5 33.125 20.4167 32.5 18.3333 31.25C17.2917 30.8333 15.8333 30.625 14.5833 31.25C10 33.125 6.45834 36.25 4.58334 40C3.125 42.7083 5.41667 45.8333 8.54167 45.8333H41.4583C44.5833 45.8333 46.875 42.7083 45.4167 39.7917Z" fill="white"/>
</svg>
